<?xml version="1.0" encoding="UTF-8"?>
<svg width="23px" height="26px" viewBox="0 0 23 26" version="1.1" xmlns="http://www.w3.org/2000/svg" xmlns:xlink="http://www.w3.org/1999/xlink">
    <title>我</title>
    <defs>
        <polygon id="path-1" points="4.69935638e-16 0.5 23 0.5 23 26.5 4.69935638e-16 26.5"></polygon>
    </defs>
    <g id="商城" stroke="none" stroke-width="1" fill="none" fill-rule="evenodd">
        <g id="1-1-1首页" transform="translate(-1434.000000, -69.000000)">
            <g id="搜索栏" transform="translate(0.000000, 36.000000)">
                <g id="我" transform="translate(1431.000000, 31.500000)">
                    <g transform="translate(3.000000, 1.000000)">
                        <mask id="mask-2" fill="white">
                            <use xlink:href="#path-1"></use>
                        </mask>
                        <g id="Clip-2"></g>
                        <path d="M17.2612317,8.66583726 C17.2612317,5.38616617 14.683243,2.72704028 11.5036025,2.72704028 C8.32409522,2.72704028 5.74610648,5.38616617 5.74610648,8.66583726 C5.74610648,11.945474 8.32396193,14.6044624 11.5036025,14.6044624 C14.683243,14.6044624 17.2612317,11.945474 17.2612317,8.66583726 M23,25.7396638 C23,25.7396638 22.9001635,26.6372098 21.579462,26.4819532 C21.1592888,26.4327331 20.7114906,25.7396638 20.7114906,25.7396638 C19.9454551,20.6809864 16.1199094,16.8315027 11.5036025,16.8315027 C6.88742875,16.8315027 3.06188313,20.6809864 2.29584762,25.7396638 C2.29584762,25.7396638 2.11946751,26.4226622 1.42787621,26.4819532 C-0.187269744,26.621227 0.00733819796,25.7396638 0.00733819796,25.7396638 C0.155726754,21.0957144 3.05131966,17.1455561 7.12638997,15.4679118 C4.99396678,14.0042995 3.58685805,11.5053798 3.58685805,8.66583726 C3.58685805,4.15590283 7.13135514,0.5 11.5036025,0.5 C15.8759831,0.5 19.4203469,4.15590283 19.4203469,8.66583726 C19.4203469,11.5053798 18.0133381,14.0042995 15.8809149,15.4679118 C19.9559852,17.1455561 22.8516114,21.0957144 23,25.7396638" id="Fill-1" fill="#FFDE67" mask="url(#mask-2)"></path>
                    </g>
                </g>
            </g>
        </g>
    </g>
</svg>