<?xml version="1.0" encoding="UTF-8"?>
<svg width="15px" height="12px" viewBox="0 0 15 12" version="1.1" xmlns="http://www.w3.org/2000/svg" xmlns:xlink="http://www.w3.org/1999/xlink">
    <title>蓝色送货图标</title>
    <defs>
        <polygon id="path-1" points="2.05198358e-06 0.0188571429 14.9810807 0.0188571429 14.9810807 9.98454857 2.05198358e-06 9.98454857"></polygon>
        <polygon id="path-3" points="0.00683367009 0.0227803396 11.9915479 0.0227803396 11.9915479 3 0.00683367009 3"></polygon>
    </defs>
    <g id="商城" stroke="none" stroke-width="1" fill="none" fill-rule="evenodd">
        <g id="1-1-3详情页" transform="translate(-1004.000000, -668.000000)">
            <g id="选项" transform="translate(1003.000000, 203.000000)">
                <g id="蓝色送货图标" transform="translate(0.000000, 464.000000)">
                    <g transform="translate(1.000000, 1.000000)" id="编组">
                        <g>
                            <mask id="mask-2" fill="white">
                                <use xlink:href="#path-1"></use>
                            </mask>
                            <g id="Clip-2"></g>
                            <path d="M6.76338098,0.628377143 L6.76338098,9.37502476 C6.76338098,9.71178667 7.05722503,9.98454857 7.42001573,9.98454857 L10.2943933,9.98454857 C10.458552,9.98454857 10.5948037,9.87182476 10.619407,9.72249143 C10.7556792,8.87978667 11.5403167,8.23216762 12.4859118,8.23216762 C13.5283399,8.23216762 14.3737367,9.01691048 14.3737367,9.98454857 C14.7086409,9.98454857 14.9810828,9.73165333 14.9810828,9.42077714 L14.9810828,0.628377143 C14.9810828,0.291615238 14.6873208,0.0188533333 14.324448,0.0188533333 L7.42001573,0.0188533333 C7.05722503,0.0188533333 6.76338098,0.291615238 6.76338098,0.628377143 M4.60791587,3.99601524 L4.60791587,6.1902819 C4.60791587,6.35792 4.46017305,6.49504381 4.2795985,6.49504381 L1.47743023,6.49504381 C1.29683516,6.49504381 1.14911286,6.35792 1.14911286,6.1902819 L1.14911286,5.98306286 C1.14911286,5.82302476 1.21803899,5.66757714 1.33955746,5.55485333 L2.74966005,4.23372952 C3.1190171,3.88626286 3.62296375,3.69125333 4.14989261,3.69125333 L4.2795985,3.69125333 C4.46017305,3.69125333 4.60791587,3.82689143 4.60791587,3.99601524 M2.05198358e-06,5.7742819 L2.05198358e-06,9.67978667 C2.05198358e-06,9.84742476 0.14772435,9.98454857 0.328319425,9.98454857 L0.379208618,9.98454857 C0.543367305,9.98454857 0.679639535,9.87182476 0.704242818,9.72249143 C0.840515048,8.87978667 1.62515253,8.23216762 2.57074761,8.23216762 C3.5162606,8.23216762 4.30100068,8.87830095 4.43717031,9.72249143 C4.46185568,9.87331048 4.59804583,9.98454857 4.76220451,9.98454857 L5.4287093,9.98454857 C5.60928386,9.98454857 5.75702668,9.84742476 5.75702668,9.67978667 L5.75702668,2.91409143 C5.75702668,2.74645333 5.60928386,2.60932952 5.4287093,2.60932952 L3.68868878,2.60932952 C3.14530301,2.60932952 2.62494049,2.81811048 2.25230027,3.18685333 L0.267560192,5.14950095 C0.0952346101,5.31862476 2.05198358e-06,5.54266286 2.05198358e-06,5.7742819" id="Fill-1" fill="#38597F" mask="url(#mask-2)"></path>
                        </g>
                        <g transform="translate(2.000000, 9.000000)">
                            <mask id="mask-4" fill="white">
                                <use xlink:href="#path-3"></use>
                            </mask>
                            <g id="Clip-4"></g>
                            <path d="M10.7600333,0.0230186047 C10.0478765,0.00811162791 9.46905294,0.694623256 9.48154314,1.53927442 C9.49409216,2.3356 10.0415824,2.98485581 10.7129353,2.99976279 C11.4250922,3.01464651 12.0039157,2.32815814 11.9913471,1.48350698 C11.9788569,0.68715814 11.4313667,0.0379023256 10.7600333,0.0230186047 M1.28546471,0.0230186047 C0.573288235,0.00811162791 -0.00549607843,0.694623256 0.00703333333,1.53927442 C0.0196019608,2.3356 0.567092157,2.98485581 1.23842549,2.99976279 C1.95058235,3.01464651 2.52940588,2.32815814 2.51683725,1.48350698 C2.50428824,0.68715814 1.95687647,0.0379023256 1.28546471,0.0230186047" id="Fill-3" fill="#38597F" mask="url(#mask-4)"></path>
                        </g>
                    </g>
                </g>
            </g>
        </g>
    </g>
</svg>