<?xml version="1.0" encoding="UTF-8"?>
<svg width="171px" height="37px" viewBox="0 0 171 37" version="1.1" xmlns="http://www.w3.org/2000/svg" xmlns:xlink="http://www.w3.org/1999/xlink">
    <title>logo</title>
    <g id="商城" stroke="none" stroke-width="1" fill="none" fill-rule="evenodd">
        <g id="1-1-1首页" transform="translate(-360.000000, -64.000000)">
            <g id="搜索栏" transform="translate(0.000000, 36.000000)">
                <g id="logo" transform="translate(360.000000, 28.000000)">
                    <path d="M143,14 L140.124704,34 L137.054994,34 L137.464288,31.14 C135.366653,32.91 132.685772,34 129.892335,34 C124.244068,34 120.304606,29.52 121.10273,24 C121.900855,18.48 127.129596,14 132.777863,14 C135.540603,14 137.894048,15.07 139.480065,16.81 L139.531227,16.86 L139.940522,14 L143,14 Z M131.97044,17 C128.138192,17 124.603016,20.13 124.068284,24 C123.533552,27.87 126.197311,31 130.02956,31 C133.861808,31 137.396984,27.87 137.931716,24 C138.466448,20.13 135.802689,17 131.97044,17 Z" id="路径-2-path-6" fill="#FFFFFF" fill-rule="nonzero"></path>
                    <path d="M155.680412,14 L155.290006,16.86 C157.290838,15.09 159.847999,14 162.512523,14 C167.841569,14 171.579709,18.39 170.925779,23.83 L170.906259,24 L169.530076,34 L166.602029,34 L167.978211,24 C168.50526,20.13 165.879777,17 162.102596,17 C158.364455,17 154.909359,20.07 154.32375,23.88 L154.30423,24 L152.928047,34 L150,34 L152.742604,14 L155.680412,14 Z" id="路径-2-path" fill="#FFFFFF" fill-rule="nonzero"></path>
                    <polygon id="路径-2-path" fill="#FFFFFF" fill-rule="nonzero" points="70 4 69.566474 7 52.0189926 7 50.4913295 17.5 68.0388109 17.5 67.6052849 20.5 50.0578035 20.5 48.5301404 31 66.0776218 31 65.6440958 34 45 34 49.3559042 4"></polygon>
                    <path d="M83.5811244,34 C79.7146356,34 76.290559,32.4552113 73.9395779,29.6503169 C71.599575,26.8587324 70.6059946,23.1172887 71.1417729,19.1153521 C71.6791927,15.1021127 73.7280162,11.3082746 76.9106746,8.43271127 C80.1043112,5.57521127 84.0175856,4 87.9266534,4 C91.4999108,4 94.6929318,5.31704225 97,7.72538732 L94.9399931,9.51503521 C93.2337517,7.92799296 90.5523979,7.06338028 87.2794514,7.06338028 C84.1993932,7.06338028 81.1398551,8.29116197 78.6643173,10.520669 C76.1859068,12.7526056 74.5842149,15.7223944 74.1541149,18.8827465 C73.7173458,22.0938028 74.5237834,25.1165141 76.4248626,27.3940845 C78.3316874,29.6785211 81.1030216,30.9366197 84.228429,30.9366197 C87.0534231,30.9366197 89.8590257,29.9058451 92.2032352,28.0202817 L93.9439503,30.1051761 C90.898058,32.6227465 87.2479531,34 83.5811244,34" id="Fill-1" fill="#FFFFFF"></path>
                    <path d="M103.38583,4 L101.534258,16.86 C103.631343,15.09 106.311519,14 109.104223,14 C114.689629,14 118.607597,18.39 117.922208,23.83 L117.901749,24 L116.459364,34 L113.390459,34 L114.832844,24 C115.385247,20.13 112.633463,17 108.674576,17 C104.756608,17 101.1353,20.07 100.521519,23.88 L100.51129,24 L99.0689046,34 L96,34 L100.316926,4 L103.38583,4 Z" id="路径-2-path" fill="#FFFFFF" fill-rule="nonzero"></path>
                    <polygon id="路径-2-path" fill="#FFFFFF" fill-rule="nonzero" points="149 14 146.581756 34 144 34 146.418244 14"></polygon>
                    <path d="M148.846676,7 C150.213569,7 151.164451,8.344 150.976256,10 C150.78806,11.656 149.520217,13 148.153324,13 C146.786431,13 145.835549,11.656 146.023744,10 C146.21194,8.344 147.479783,7 148.846676,7 Z" id="路径-2-path" fill="#FFFFFF" fill-rule="nonzero"></path>
                    <path d="M32.0857685,27.232 L31.8102467,26.9606667 L31.7914611,26.973 C31.7601518,26.9483333 31.7288425,26.9236667 31.6912713,26.899 C31.6912713,26.899 31.6850095,26.899 31.6850095,26.8928333 C31.5222011,26.7756667 31.3468691,26.677 31.1590133,26.5968333 C31.1464896,26.5906667 31.1402277,26.5906667 31.127704,26.5845 C31.0963947,26.5721667 31.0713472,26.5598333 31.040038,26.5475 C31.0275142,26.5413333 31.0149905,26.5351667 30.9962049,26.529 C30.9711575,26.5166667 30.9398482,26.5105 30.9148008,26.4981667 C30.8960152,26.492 30.8834915,26.4858333 30.8647059,26.4796667 C30.8396584,26.4735 30.8083491,26.4611667 30.7833017,26.455 C30.7645161,26.4488333 30.7394687,26.4426667 30.7206831,26.4365 C30.683112,26.4241667 30.6455408,26.418 30.6017078,26.4056667 C30.5766603,26.3995 30.545351,26.3933333 30.5203036,26.3871667 C30.501518,26.381 30.4764706,26.381 30.457685,26.3748333 C30.4326376,26.3686667 30.4013283,26.3625 30.3762808,26.3625 C30.3574953,26.3563333 30.3387097,26.3563333 30.3136622,26.3563333 C30.2823529,26.3501667 30.2573055,26.3501667 30.2259962,26.344 C30.2072106,26.344 30.188425,26.3378333 30.1696395,26.3378333 C30.1383302,26.3378333 30.1070209,26.3316667 30.0694497,26.3316667 C30.0506641,26.3316667 30.0381404,26.3316667 30.0193548,26.3316667 C29.96926,26.3316667 29.9191651,26.3255 29.8690702,26.3255 C29.0049336,26.3255 28.2222011,26.6708333 27.6523719,27.2258333 C26.9072106,27.9596667 26.0555977,28.5825 25.1413662,29.119 C24.1457306,29.6986667 23.0624288,30.1488333 21.9102467,30.4386667 C20.9083491,30.6915 19.8626186,30.8271667 18.7793169,30.8271667 C17.6960152,30.8271667 16.6502846,30.6915 15.6483871,30.4386667 C14.4962049,30.1488333 13.4129032,29.6986667 12.4172676,29.119 C10.5950664,28.0583333 9.06717268,26.5536667 7.99013283,24.7591667 C6.8943074,22.9276667 6.26185958,20.7878333 6.26185958,18.5 C6.26185958,16.2121667 6.8943074,14.0723333 7.99639469,12.2346667 C9.07343454,10.4401667 10.6013283,8.9355 12.4235294,7.87483333 C13.4191651,7.29516667 14.5024668,6.845 15.654649,6.55516667 C16.6565465,6.30233333 17.702277,6.16666667 18.7855787,6.16666667 C20.513852,6.16666667 21.9165085,4.78533333 21.9165085,3.08333333 C21.9165085,1.38133333 20.513852,0 18.7855787,0 C17.7210626,0 16.6753321,0.0863333333 15.654649,0.259 C12.799241,0.727666667 10.1629981,1.83766667 7.90246679,3.4225 C6.19297913,4.625 4.69013283,6.09883333 3.47533207,7.78233333 C1.28994307,10.804 0,14.504 0,18.5 C0,22.496 1.28368121,26.196 3.47533207,29.2176667 C4.69639469,30.9011667 6.19297913,32.3811667 7.90246679,33.5775 C10.1629981,35.1623333 12.799241,36.2661667 15.654649,36.741 C16.6753321,36.9075 17.7210626,37 18.7855787,37 C19.8500949,37 20.8958254,36.9136667 21.9165085,36.741 C24.7719165,36.2723333 27.4081594,35.1623333 29.6686907,33.5775 C30.4201139,33.0533333 31.127704,32.4675 31.7914611,31.8446667 C31.9918406,31.6905 32.1734345,31.5116667 32.3362429,31.3081667 C32.7495256,30.784 33,30.1303333 33,29.415 C33,28.564 32.6493359,27.7931667 32.0857685,27.232 Z M32.3494585,4.25415162 C32.1960289,4.04620939 32.0180505,3.85776173 31.8155235,3.68880866 C31.3,3.2599278 30.6433213,3 29.9314079,3 C29.0844765,3 28.3173285,3.36389892 27.7588448,3.94873646 L25.2978339,6.55451264 L22.1371841,9.90758123 L19.0685921,13.1566787 L16.8960289,15.4570397 C16.3436823,16.0418773 16,16.8541516 16,17.7574007 C16,18.6606498 16.3436823,19.466426 16.8960289,20.0577617 C17.4483755,20.6490975 18.2216606,21 19.0685921,21 C19.9155235,21 20.6826715,20.6361011 21.2411552,20.0512635 L22.1371841,19.1025271 L23.4075812,17.7574007 L29.6429603,11.1552347 L32.1039711,8.54945848 C32.6563177,7.96462094 33,7.15234657 33,6.24909747 C33,5.49530686 32.7545126,4.8 32.3494585,4.25415162 Z" id="路径-2" fill="#FFDC5A"></path>
                </g>
            </g>
        </g>
    </g>
</svg>