<?xml version="1.0" encoding="UTF-8"?>
<svg width="161px" height="37px" viewBox="0 0 161 37" version="1.1" xmlns="http://www.w3.org/2000/svg" xmlns:xlink="http://www.w3.org/1999/xlink">
    <title>logo</title>
    <g id="商城" stroke="none" stroke-width="1" fill="none" fill-rule="evenodd">
        <g id="1-1-1首页" transform="translate(-360.000000, -64.000000)">
            <g id="搜索栏" transform="translate(0.000000, 36.000000)">
                <g id="logo" transform="translate(360.000000, 28.000000)">
                    <path d="M132,14 L129.2554,34 L126.325221,34 L126.715912,31.14 C124.713623,32.91 122.154601,34 119.488138,34 C114.09661,34 110.336215,29.52 111.098061,24 C111.859907,18.48 116.850978,14 122.242506,14 C124.879667,14 127.126137,15.07 128.640062,16.81 L128.688898,16.86 L129.079589,14 L132,14 Z M121.887107,16.4242424 C118.054858,16.4242424 114.519683,19.5406926 113.984951,23.3939394 C113.450218,27.2471861 116.113978,30.3636364 119.946226,30.3636364 C123.778475,30.3636364 127.31365,27.2471861 127.848383,23.3939394 C128.383115,19.5406926 125.719356,16.4242424 121.887107,16.4242424 Z" id="路径-2-path-6" fill="#FFFFFF" fill-rule="nonzero"></path>
                    <path d="M145.680412,14 L145.290006,16.86 C147.290838,15.09 149.847999,14 152.512523,14 C157.841569,14 161.579709,18.39 160.925779,23.83 L160.906259,24 L159.530076,34 L156.602029,34 L157.978211,24 C158.50526,20.13 155.879777,17 152.102596,17 C148.364455,17 144.909359,20.07 144.32375,23.88 L144.30423,24 L142.928047,34 L140,34 L142.742604,14 L145.680412,14 Z" id="路径-2-path" fill="#FFFFFF" fill-rule="nonzero"></path>
                    <polygon id="路径-2-path" fill="#FFFFFF" fill-rule="nonzero" points="69 4 68.6011561 7 52.4574732 7 51.0520231 17.5 67.195706 17.5 66.7968621 20.5 50.6531792 20.5 49.2477291 31 65.3914121 31 64.9925681 34 46 34 50.0074319 4"></polygon>
                    <path d="M80.4047202,14 C83.1081907,14 85.4155484,15.1 86.9504859,16.88 L87,16.93 L84.6035169,19.05 C83.5241093,17.78 81.9000464,17 79.9888016,17 C78.0775569,17 76.2356319,17.78 74.7997226,19.05 C73.3638133,20.32 72.3438226,22.07 72.0764464,24 C71.8090702,25.93 72.3339198,27.68 73.4133274,28.95 C74.4927351,30.22 76.116798,31 78.0280427,31 C79.9194819,31 81.7416012,30.24 83.1676077,28.99 L83.2171218,28.95 L85.0194355,31.07 C82.979454,32.88 80.3453032,34 77.6121242,34 C74.8789452,34 72.5616847,32.88 71.0168444,31.07 C69.472004,29.26 68.7193895,26.76 69.0956968,24 C69.472004,21.24 70.9376218,18.74 72.9776032,16.93 C75.0373903,15.12 77.6715411,14 80.4047202,14 Z" id="路径-2-path" fill="#FFFFFF" fill-rule="nonzero"></path>
                    <path d="M94.0501108,4 L92.2827007,16.86 C94.2844635,15.09 96.842814,14 99.5085761,14 C104.8401,14 108.579979,18.39 107.925744,23.83 L107.906215,24 L106.529393,34 L103.599984,34 L104.976806,24 C105.5041,20.13 102.877396,17 99.0984588,17 C95.3585801,17 91.9018776,20.07 91.3159958,23.88 L91.3062311,24 L89.9294089,34 L87,34 L91.1207019,4 L94.0501108,4 Z" id="路径-2-path" fill="#FFFFFF" fill-rule="nonzero"></path>
                    <polygon id="路径-2-path" fill="#FFFFFF" fill-rule="nonzero" points="139 14 136.098107 34 133 34 135.901893 14"></polygon>
                    <path d="M138.277341,6 C139.370855,6 140.131561,7.344 139.981004,9 C139.830448,10.656 138.816174,12 137.722659,12 C136.629145,12 135.868439,10.656 136.018996,9 C136.169552,7.344 137.183826,6 138.277341,6 Z" id="路径-2-path" fill="#FFFFFF" fill-rule="nonzero"></path>
                    <path d="M32.0857685,27.232 L31.8102467,26.9606667 L31.7914611,26.973 C31.7601518,26.9483333 31.7288425,26.9236667 31.6912713,26.899 C31.6912713,26.899 31.6850095,26.899 31.6850095,26.8928333 C31.5222011,26.7756667 31.3468691,26.677 31.1590133,26.5968333 C31.1464896,26.5906667 31.1402277,26.5906667 31.127704,26.5845 C31.0963947,26.5721667 31.0713472,26.5598333 31.040038,26.5475 C31.0275142,26.5413333 31.0149905,26.5351667 30.9962049,26.529 C30.9711575,26.5166667 30.9398482,26.5105 30.9148008,26.4981667 C30.8960152,26.492 30.8834915,26.4858333 30.8647059,26.4796667 C30.8396584,26.4735 30.8083491,26.4611667 30.7833017,26.455 C30.7645161,26.4488333 30.7394687,26.4426667 30.7206831,26.4365 C30.683112,26.4241667 30.6455408,26.418 30.6017078,26.4056667 C30.5766603,26.3995 30.545351,26.3933333 30.5203036,26.3871667 C30.501518,26.381 30.4764706,26.381 30.457685,26.3748333 C30.4326376,26.3686667 30.4013283,26.3625 30.3762808,26.3625 C30.3574953,26.3563333 30.3387097,26.3563333 30.3136622,26.3563333 C30.2823529,26.3501667 30.2573055,26.3501667 30.2259962,26.344 C30.2072106,26.344 30.188425,26.3378333 30.1696395,26.3378333 C30.1383302,26.3378333 30.1070209,26.3316667 30.0694497,26.3316667 C30.0506641,26.3316667 30.0381404,26.3316667 30.0193548,26.3316667 C29.96926,26.3316667 29.9191651,26.3255 29.8690702,26.3255 C29.0049336,26.3255 28.2222011,26.6708333 27.6523719,27.2258333 C26.9072106,27.9596667 26.0555977,28.5825 25.1413662,29.119 C24.1457306,29.6986667 23.0624288,30.1488333 21.9102467,30.4386667 C20.9083491,30.6915 19.8626186,30.8271667 18.7793169,30.8271667 C17.6960152,30.8271667 16.6502846,30.6915 15.6483871,30.4386667 C14.4962049,30.1488333 13.4129032,29.6986667 12.4172676,29.119 C10.5950664,28.0583333 9.06717268,26.5536667 7.99013283,24.7591667 C6.8943074,22.9276667 6.26185958,20.7878333 6.26185958,18.5 C6.26185958,16.2121667 6.8943074,14.0723333 7.99639469,12.2346667 C9.07343454,10.4401667 10.6013283,8.9355 12.4235294,7.87483333 C13.4191651,7.29516667 14.5024668,6.845 15.654649,6.55516667 C16.6565465,6.30233333 17.702277,6.16666667 18.7855787,6.16666667 C20.513852,6.16666667 21.9165085,4.78533333 21.9165085,3.08333333 C21.9165085,1.38133333 20.513852,0 18.7855787,0 C17.7210626,0 16.6753321,0.0863333333 15.654649,0.259 C12.799241,0.727666667 10.1629981,1.83766667 7.90246679,3.4225 C6.19297913,4.625 4.69013283,6.09883333 3.47533207,7.78233333 C1.28994307,10.804 0,14.504 0,18.5 C0,22.496 1.28368121,26.196 3.47533207,29.2176667 C4.69639469,30.9011667 6.19297913,32.3811667 7.90246679,33.5775 C10.1629981,35.1623333 12.799241,36.2661667 15.654649,36.741 C16.6753321,36.9075 17.7210626,37 18.7855787,37 C19.8500949,37 20.8958254,36.9136667 21.9165085,36.741 C24.7719165,36.2723333 27.4081594,35.1623333 29.6686907,33.5775 C30.4201139,33.0533333 31.127704,32.4675 31.7914611,31.8446667 C31.9918406,31.6905 32.1734345,31.5116667 32.3362429,31.3081667 C32.7495256,30.784 33,30.1303333 33,29.415 C33,28.564 32.6493359,27.7931667 32.0857685,27.232 Z M32.3494585,4.25415162 C32.1960289,4.04620939 32.0180505,3.85776173 31.8155235,3.68880866 C31.3,3.2599278 30.6433213,3 29.9314079,3 C29.0844765,3 28.3173285,3.36389892 27.7588448,3.94873646 L25.2978339,6.55451264 L22.1371841,9.90758123 L19.0685921,13.1566787 L16.8960289,15.4570397 C16.3436823,16.0418773 16,16.8541516 16,17.7574007 C16,18.6606498 16.3436823,19.466426 16.8960289,20.0577617 C17.4483755,20.6490975 18.2216606,21 19.0685921,21 C19.9155235,21 20.6826715,20.6361011 21.2411552,20.0512635 L22.1371841,19.1025271 L23.4075812,17.7574007 L29.6429603,11.1552347 L32.1039711,8.54945848 C32.6563177,7.96462094 33,7.15234657 33,6.24909747 C33,5.49530686 32.7545126,4.8 32.3494585,4.25415162 Z" id="路径-2" fill="#FFDC5A"></path>
                </g>
            </g>
        </g>
    </g>
</svg>