<?xml version="1.0" encoding="UTF-8"?>
<svg width="18px" height="19px" viewBox="0 0 18 19" version="1.1" xmlns="http://www.w3.org/2000/svg" xmlns:xlink="http://www.w3.org/1999/xlink">
    <title>搜索</title>
    <defs>
        <polygon id="path-1" points="1.15049225e-16 0.5 18 0.5 18 18.5 1.15049225e-16 18.5"></polygon>
    </defs>
    <g id="商城" stroke="none" stroke-width="1" fill="none" fill-rule="evenodd">
        <g id="1-1-1首页" transform="translate(-1260.000000, -72.000000)">
            <g id="搜索栏" transform="translate(0.000000, 36.000000)">
                <g id="搜索" transform="translate(1259.000000, 35.000000)">
                    <g transform="translate(1.000000, 1.000000)">
                        <mask id="mask-2" fill="white">
                            <use xlink:href="#path-1"></use>
                        </mask>
                        <g id="Clip-2"></g>
                        <path d="M7.88040216,14.6865559 C4.425423,14.6865559 1.61327884,11.866988 1.61327884,8.40000865 C1.61327884,4.93305449 4.4233508,2.11348662 7.88040216,2.11348662 C11.3353813,2.11348662 14.1475255,4.93305449 14.1475255,8.40000865 C14.1475255,11.866988 11.3353813,14.6865559 7.88040216,14.6865559 M17.7116739,16.8184255 L14.1151538,13.2304346 C14.5316142,12.6919587 14.8753457,12.1029352 15.1421533,11.4716586 C15.5525994,10.4975413 15.7607791,9.46291817 15.7607791,8.39804221 C15.7607791,7.33309062 15.5525994,6.29846754 15.1421533,5.32429978 C14.7459347,4.38441861 14.177825,3.53938021 13.4540481,2.81338686 C12.7303722,2.08729267 11.8872672,1.51846301 10.9492962,1.11915028 C9.976856,0.709753261 8.94384202,0.5 7.88040216,0.5 C6.81706339,0.5 5.78392306,0.709753261 4.81148285,1.123184 C3.87351181,1.52053029 3.03050791,2.09132639 2.30673098,2.81742058 C1.58297932,3.54341392 1.01486965,4.38648589 0.618625721,5.32835871 C0.208179685,6.30250125 0,7.33709913 0,8.40207593 C0,9.46695189 0.208179685,10.501575 0.618625721,11.4757175 C1.01486965,12.4156239 1.58297932,13.2606371 2.30673098,13.9867565 C3.03050791,14.7128507 3.87351181,15.2815543 4.81148285,15.680867 C5.78392306,16.094323 6.81706339,16.3021098 7.88040216,16.3021098 C8.94384202,16.3021098 9.976856,16.0923313 10.9492962,15.680867 C11.5901601,15.4085912 12.1864718,15.0577082 12.7303722,14.6321007 L16.3208021,18.2140914 C16.7029197,18.5953029 17.3296321,18.5953029 17.7137461,18.2140914 C18.0957626,17.8247622 18.0957626,17.1995361 17.7116739,16.8184255" id="Fill-1" fill="#2C2C2C" mask="url(#mask-2)"></path>
                    </g>
                </g>
            </g>
        </g>
    </g>
</svg>