<?xml version="1.0" encoding="UTF-8"?>
<svg width="28px" height="28px" viewBox="0 0 28 28" version="1.1" xmlns="http://www.w3.org/2000/svg" xmlns:xlink="http://www.w3.org/1999/xlink">
    <!-- Generator: Sketch 60.1 (88133) - https://sketch.com -->
    <title>购物车</title>
    <desc>Created with Sketch.</desc>
    <defs>
        <polygon id="path-1" points="0 0.0203617021 27.9771794 0.0203617021 27.9771794 21.9726266 0 21.9726266"></polygon>
    </defs>
    <g id="商城" stroke="none" stroke-width="1" fill="none" fill-rule="evenodd">
        <g id="1-1-1首页" transform="translate(-1498.000000, -67.000000)">
            <g id="搜索栏" transform="translate(0.000000, 36.000000)">
                <g id="购物车" transform="translate(1498.000000, 31.000000)">
                    <g>
                        <path d="M8,26.5000229 C8,27.0358709 8.28593052,27.5309957 8.74998169,27.7989197 C9.21417934,28.0670268 9.78593052,28.0670268 10.2499817,27.7989197 C10.7140329,27.5309957 11,27.0358709 11,26.5000229 C11,25.9639918 10.7140329,25.468867 10.2499817,25.200943 C9.78593052,24.933019 9.21417934,24.933019 8.74998169,25.200943 C8.28593052,25.468867 8,25.9639918 8,26.5000229" id="Fill-1" fill="#FFFFFF"></path>
                        <path d="M17,26.5 C17,27.0358827 17.2859671,27.5311112 17.7499817,27.799032 C18.2140329,28.0669893 18.7858207,28.0669893 19.2499817,27.799032 C19.7140329,27.5311112 20,27.0358827 20,26.5 C20,25.9641265 19.7140329,25.4688613 19.2499817,25.2009406 C18.7858207,24.9330198 18.2140329,24.9330198 17.7499817,25.2009406 C17.2859671,25.4688613 17,25.9641265 17,26.5" id="Fill-3" fill="#FFFFFF"></path>
                        <g id="编组">
                            <mask id="mask-2" fill="white">
                                <use xlink:href="#path-1"></use>
                            </mask>
                            <g id="Clip-6"></g>
                            <path d="M25.7303371,7.93786525 L22.3871605,19.6829787 L5.52971961,19.7349362 L3.39424256,7.59865957 L25.4227655,7.53059735 C25.5235889,7.52797872 25.6192718,7.57537234 25.6781535,7.65732624 C25.7408517,7.73643262 25.7603232,7.84155674 25.7303371,7.93786525 M25.4157558,5.29404255 L3.00800612,5.36324113 L2.21563338,0.941124113 C2.14518554,0.54785461 1.87048178,0.222067376 1.49518832,0.0865957447 C1.11989485,-0.0488368794 0.700946314,0.0264078014 0.396256467,0.284244681 C0.0914108484,0.542042553 -0.052950765,0.943074468 0.0176139082,1.33634397 L0.740512378,5.3702234 L0.734398331,5.3702234 L3.37706871,20.388305 C3.53860417,21.306766 4.33677942,21.9755426 5.26790598,21.9726266 L22.6337474,21.9189823 C23.4867154,21.9164078 24.234849,21.3489716 24.4686626,20.5274043 L27.8776918,8.55113475 C28.3437613,6.91545035 27.11402,5.28873759 25.4157558,5.29404255" id="Fill-5" fill="#FFFFFF" mask="url(#mask-2)"></path>
                        </g>
                        <path d="M20.7571507,15.0001088 L9.20714688,15.0285765 C8.53607122,15.0365185 7.99804003,15.4774243 8,16.0174513 C8.00218432,16.5573408 8.54376165,16.9955648 9.21483731,17 L20.7648411,16.9715323 C21.2057592,16.9744891 21.6148048,16.7864578 21.8354347,16.4791921 C22.0562356,16.1720296 22.0547402,15.7930102 21.8315895,15.4868104 C21.6084815,15.1807481 21.1980688,14.9948484 20.7571507,15.0001088" id="Fill-7" fill="#FFFFFF"></path>
                    </g>
                </g>
            </g>
        </g>
    </g>
</svg>